:SAMPLES-PER-SECOND 30
:FULLY-SPECIFIED
:DEGREES
261
root  -11.6339 34.0534 -25.2474 7.6163 82.9932 1.43164
RightUpLeg  -7.17056 -12.5089 3.94739
RightLeg  20.3323 -3.8093 -1.13995
RightFoot  -9.56351 0.0258946 0.877252
RightToes  -11.2128 -0.0380727 -0.102698
Spine  -0.132 2.23652 -0.329463
Spine1  -0.26476 4.51827 0.106921
HEad  -51.3402 -14.9741 0.6227
LeftShoulder1  -1.94126e-019 -3.10601e-018 -2.51263e-017
LeftArm  -17.1317 25.59 -79.0275
LeftForeArm  32.5028 -16.0491 -2.78592
LeftHand  -0.416323 -1.12424 7.56364
RightShoulder  -4.96962e-017 0 -2.36833e-017
RightArm  -11.6469 -0.335461 76.2506
RightForeArm  44.0307 48.9805 9.60709
RightHand  -0.174167 -1.285 -4.7843
LeftUpLeg  -23.9415 1.43947 -4.879
LeftLeg  19.0243 16.2771 4.39477
LeftFoot  6.21468 -0.102366 2.04705
LeftToes  -4.70231 1.46665e-006 1.03344e-007
262
root  -10.907 33.9514 -25.1282 13.1699 82.1154 7.57867
RightUpLeg  -8.37863 -14.7622 2.45994
RightLeg  26.1226 -1.82188 -0.75833
RightFoot  -10.3987 0.00112451 0.568177
RightToes  -14.9736 -0.0552463 -0.135232
Spine  -0.0337446 2.11312 -0.88845
Spine1  -0.0847284 4.27515 -0.999117
HEad  -50.86 -14.0084 0.589914
LeftShoulder1  -1.94126e-019 -3.10601e-018 -2.51263e-017
LeftArm  -19.436 26.222 -77.6863
LeftForeArm  33.396 -10.53 -1.84804
LeftHand  -0.430324 -0.878952 8.0989
RightShoulder  -4.96962e-017 0 -2.36833e-017
RightArm  -9.6201 0.822553 77.9217
RightForeArm  44.6214 49.8835 9.92885
RightHand  -0.184314 -0.995123 -4.77458
LeftUpLeg  -23.5573 -0.279506 -5.25165
LeftLeg  22.0848 18.3547 5.97807
LeftFoot  4.35155 -0.0582003 1.69337
LeftToes  -3.84301 1.46665e-006 1.03344e-007
263
root  -10.2833 33.9038 -24.9962 16.7059 80.832 11.4516
RightUpLeg  -11.4649 -17.4619 1.03437
RightLeg  34.4591 -0.102157 -0.0762563
RightFoot  -8.67579 -0.0244946 0.223663
RightToes  -25.03 -0.111237 -0.215983
Spine  -0.0254693 2.27141 -1.47856
Spine1  -0.0730747 4.61663 -2.17124
HEad  -50.2431 -13.0257 0.202571
LeftShoulder1  -1.94126e-019 -3.10601e-018 -2.51263e-017
LeftArm  -21.5794 26.7389 -76.2879
LeftForeArm  34.0194 -7.52504 -1.31094
LeftHand  -0.424343 -0.364816 8.65589
RightShoulder  -4.96962e-017 0 -2.36833e-017
RightArm  -8.0826 1.29775 79.5503
RightForeArm  44.8136 50.8676 10.3292
RightHand  -0.188424 -0.942511 -4.83269
LeftUpLeg  -23.1699 1.16317 -6.00901
LeftLeg  24.0773 17.8287 6.49107
LeftFoot  2.7493 -0.023178 1.12744
LeftToes  -2.93011 1.46665e-006 1.03344e-007
264
root  -9.71418 33.8827 -24.9141 19.4367 79.938 14.5437
RightUpLeg  -15.4073 -21.5558 -0.542208
RightLeg  43.654 0.973239 0.783938
RightFoot  -3.2819 -0.0124357 0.115542
RightToes  -42.1816 -0.236141 -0.327111
Spine  -0.0460607 2.38356 -1.91366
Spine1  -0.127481 4.85338 -3.04635
HEad  -49.0543 -11.9847 -0.727126
LeftShoulder1  -1.94126e-019 -3.10601e-018 -2.51263e-017
LeftArm  -22.8474 27.2738 -75.3531
LeftForeArm  34.0638 -5.70954 -0.98959
LeftHand  -0.419695 0.254118 9.5351
RightShoulder  -4.96962e-017 0 -2.36833e-017
RightArm  -6.08196 1.58409 80.4161
RightForeArm  44.5866 51.7191 10.7173
RightHand  -0.185267 -1.06111 -4.865
LeftUpLeg  -21.9656 3.62921 -6.96867
LeftLeg  23.9895 16.4573 5.98163
LeftFoot  1.33495 -0.00520976 0.608773
LeftToes  -0.771592 1.46665e-006 1.03344e-007
265
root  -9.22066 33.8767 -24.8029 18.1959 79.6675 13.6388
RightUpLeg  -19.504 -25.9295 -1.34318
RightLeg  52.2025 1.78582 1.96285
RightFoot  3.29396 0.00511081 0.328856
RightToes  -47.7305 -0.282992 -0.354499
Spine  0.05029 2.40401 -1.93001
Spine1  0.0549386 4.9458 -3.10081
HEad  -48.0236 -10.8193 -1.86877
LeftShoulder1  -1.94126e-019 -3.10601e-018 -2.51263e-017
LeftArm  -23.2795 27.4672 -75.1975
LeftForeArm  33.3492 -4.81886 -0.833641
LeftHand  -0.404445 0.687151 9.99285
RightShoulder  -4.96962e-017 0 -2.36833e-017
RightArm  -3.88992 2.23446 80.4665
RightForeArm  45.0684 52.4465 11.0049
RightHand  -0.167372 -0.635777 -4.03765
LeftUpLeg  -20.9811 4.95424 -6.90263
LeftLeg  24.2318 15.6838 5.7832
LeftFoot  0.194147 -0.000158717 0.255433
LeftToes  0.141071 1.46665e-006 1.03344e-007
266
root  -8.81407 33.8891 -24.6573 16.6562 80.0483 12.2518
RightUpLeg  -23.1112 -29.88 -1.62674
RightLeg  58.512 1.67168 2.2877
RightFoot  7.70989 -0.00296832 0.559364
RightToes  -42.2353 -0.236582 -0.327398
Spine  0.214196 2.34976 -1.83592
Spine1  0.371136 4.87636 -2.92954
HEad  -47.2008 -10.1567 -2.55668
LeftShoulder1  -1.94126e-019 -3.10601e-018 -2.51263e-017
LeftArm  -23.186 26.8725 -75.2631
LeftForeArm  33.201 -4.61756 -0.798538
LeftHand  -0.399145 0.710592 9.90845
RightShoulder  -4.96962e-017 0 -2.36833e-017
RightArm  -2.45169 2.91179 80.4539
RightForeArm  45.6471 52.9668 11.1966
RightHand  -0.167361 -0.479082 -3.92642
LeftUpLeg  -20.3996 4.20098 -6.32585
LeftLeg  24.901 15.9992 6.10463
LeftFoot  -0.607266 -0.000775567 0.015153
LeftToes  0.535056 1.46665e-006 1.03344e-007
267
root  -8.43867 33.9705 -24.4554 14.8109 80.8783 10.4401
RightUpLeg  -25.6922 -32.9664 -1.49008
RightLeg  61.4057 0.0544502 -0.013412
RightFoot  8.91187 0.0267645 0.188327
RightToes  -33.8459 -0.171281 -0.277787
Spine  0.319962 2.37791 -1.71468
Spine1  0.575137 4.91066 -2.67887
HEad  -46.1455 -10.3333 -2.76825
LeftShoulder1  -1.94126e-019 -3.10601e-018 -2.51263e-017
LeftArm  -23.0122 25.5931 -75.3401
LeftForeArm  34.155 -4.90171 -0.847729
LeftHand  -0.405104 0.471228 9.58956
RightShoulder  -4.96962e-017 0 -2.36833e-017
RightArm  -2.37017 2.8505 80.5441
RightForeArm  45.6592 53.2261 11.315
RightHand  -0.17314 -0.485081 -4.06835
LeftUpLeg  -19.5742 3.41444 -5.57841
LeftLeg  24.7097 16.0558 6.06546
LeftFoot  -0.761203 -0.00133908 -0.0400658
LeftToes  -0.0793134 1.46665e-006 1.03344e-007
268
root  -8.08641 34.1229 -24.1977 10.281 81.9774 5.86856
RightUpLeg  -27.0612 -34.7449 -1.02722
RightLeg  60.9705 -1.79794 -2.89254
RightFoot  8.57313 0.0647197 -0.32166
RightToes  -33.5341 -0.168999 -0.275763
Spine  0.375697 2.42968 -1.4917
Spine1  0.686148 4.96125 -2.21936
HEad  -44.9215 -10.8712 -2.64737
LeftShoulder1  -1.94126e-019 -3.10601e-018 -2.51263e-017
LeftArm  -22.1918 24.3627 -75.5543
LeftForeArm  34.18 -6.34536 -1.10261
LeftHand  -0.402431 0.373842 9.35019
RightShoulder  -4.96962e-017 0 -2.36833e-017
RightArm  -2.81807 2.32305 80.6789
RightForeArm  44.9134 53.0981 11.3101
RightHand  -0.168603 -0.677371 -4.09894
LeftUpLeg  -18.4894 2.46898 -4.37277
LeftLeg  23.75 16.182 5.80994
LeftFoot  -0.422618 -0.000414973 0.0489667
LeftToes  -1.1527 1.46665e-006 1.03344e-007
269
root  -7.79087 34.2823 -23.8711 4.53987 82.9923 0.0169373
RightUpLeg  -27.2721 -34.6877 -0.758518
RightLeg  57.4004 -3.07143 -4.25027
RightFoot  8.25222 0.0808376 -0.560268
RightToes  -32.3758 -0.160619 -0.268134
Spine  0.382312 2.40503 -1.26319
Spine1  0.700883 4.90078 -1.76876
HEad  -43.8286 -11.018 -2.49007
LeftShoulder1  -1.94126e-019 -3.10601e-018 -2.51263e-017
LeftArm  -20.9215 23.8809 -75.7436
LeftForeArm  33.001 -10.4049 -1.83119
LeftHand  -0.397276 0.071728 8.73292
RightShoulder  -4.96962e-017 0 -2.36833e-017
RightArm  -2.54815 1.97568 80.9799
RightForeArm  44.4097 52.5355 11.0829
RightHand  -0.160606 -0.726836 -3.93575
LeftUpLeg  -17.4262 1.81942 -3.06773
LeftLeg  22.3987 16.0884 5.36069
LeftFoot  0.104647 -4.02369e-005 0.205936
LeftToes  -2.01544 1.46665e-006 1.03344e-007
270
root  -7.56583 34.3928 -23.5197 2.44522 83.7195 -2.30768
RightUpLeg  -26.5083 -32.2471 -1.34697
RightLeg  51.1458 -3.96133 -4.35635
RightFoot  7.46351 0.073496 -0.564081
RightToes  -31.0335 -0.151102 -0.259085
Spine  0.324293 2.41196 -1.21825
Spine1  0.579697 4.92223 -1.68938
HEad  -42.957 -10.9551 -2.3693
LeftShoulder1  -1.94126e-019 -3.10601e-018 -2.51263e-017
LeftArm  -18.2144 23.5728 -75.6314
LeftForeArm  30.5803 -15.468 -2.69633
LeftHand  -0.38022 -0.185739 7.99568
RightShoulder  -4.96962e-017 0 -2.36833e-017
RightArm  -1.67074 1.81721 81.4014
RightForeArm  44.9027 51.9417 10.7737
RightHand  -0.158259 -0.42859 -3.67763
LeftUpLeg  -16.4893 1.33381 -2.26469
LeftLeg  20.8376 15.8362 4.81245
LeftFoot  0.753541 -0.00155275 0.397729
LeftToes  -3.47732 1.46665e-006 1.03344e-007
271
root  -7.33949 34.4549 -23.181 3.19078 85.0954 -1.98692
RightUpLeg  -24.382 -28.8315 -2.74084
RightLeg  41.9527 -4.94883 -3.91969
RightFoot  6.65378 0.0635815 -0.529757
RightToes  -29.8506 -0.142893 -0.250926
Spine  0.165214 2.25041 -1.30289
Spine1  0.259119 4.5932 -1.86494
HEad  -42.2075 -10.8511 -2.33951
LeftShoulder1  -1.94126e-019 -3.10601e-018 -2.51263e-017
LeftArm  -14.6077 23.0116 -75.1836
LeftForeArm  28.3579 -20.4188 -3.40224
LeftHand  -0.355951 -0.277059 7.37553
RightShoulder  -4.96962e-017 0 -2.36833e-017
RightArm  -0.848307 1.27266 81.7717
RightForeArm  45.7904 51.9424 10.7082
RightHand  -0.154521 -0.0801994 -3.39161
LeftUpLeg  -15.8976 0.116484 -1.81461
LeftLeg  19.3636 15.856 4.38359
LeftFoot  1.39536 -0.00514211 0.583849
LeftToes  -4.69624 1.46665e-006 1.03344e-007
272
root  -7.11038 34.4681 -22.8272 11.4536 86.4998 5.78191
RightUpLeg  -20.9756 -23.3216 -4.94975
RightLeg  30.2652 -6.30985 -3.1564
RightFoot  6.14633 0.0602375 -0.55459
RightToes  -27.1099 -0.124534 -0.231386
Spine  -0.0364046 2.13675 -1.52072
Spine1  -0.148609 4.35501 -2.30361
HEad  -41.4717 -10.7178 -2.48704
LeftShoulder1  -1.94126e-019 -3.10601e-018 -2.51263e-017
LeftArm  -11.6363 21.8409 -74.6495
LeftForeArm  27.3852 -24.2693 -3.93364
LeftHand  -0.342901 -0.642132 6.7083
RightShoulder  -4.96962e-017 0 -2.36833e-017
RightArm  -0.351512 0.339155 82.0937
RightForeArm  46.3913 52.5475 10.9377
RightHand  -0.148184 0.166336 -3.13369
LeftUpLeg  -15.546 -0.779004 -1.76124
LeftLeg  18.1584 15.4267 3.92624
LeftFoot  1.95812 -0.00968747 0.72844
LeftToes  -6.19362 1.46665e-006 1.03344e-007
273
root  -6.90426 34.4441 -22.4799 37.5665 87.7614 31.1241
RightUpLeg  -17.1303 -15.3328 -7.77826
RightLeg  17.6338 -6.5099 -1.613
RightFoot  5.37377 0.0468854 -0.434687
RightToes  -22.7687 -0.0974246 -0.198702
Spine  -0.379107 2.05335 -1.81833
Spine1  -0.833719 4.16418 -2.90027
HEad  -40.6896 -10.5558 -2.80486
LeftShoulder1  -1.94126e-019 -3.10601e-018 -2.51263e-017
LeftArm  -9.22666 20.4485 -74.2028
LeftForeArm  27.5222 -27.3111 -4.40888
LeftHand  -0.345856 -0.908593 6.50172
RightShoulder  -4.96962e-017 0 -2.36833e-017
RightArm  -0.049215 -0.953366 82.2678
RightForeArm  46.2321 53.5149 11.4066
RightHand  -0.144198 0.145534 -3.05919
LeftUpLeg  -15.6971 -1.74067 -1.96687
LeftLeg  17.2557 14.8647 3.54194
LeftFoot  2.43638 -0.0152079 0.83294
LeftToes  -7.72994 1.46665e-006 1.03344e-007
274
root  -6.67435 34.4239 -22.129 92.7207 88.0812 85.7403
RightUpLeg  -14.0987 -9.39889 -9.97529
RightLeg  9.06454 -1.24322 -0.115947
RightFoot  11.0097 0.0603272 -0.0849095
RightToes  -37.1018 -0.195755 -0.298172
Spine  -0.671668 2.02501 -2.0657
Spine1  -1.42058 4.09191 -3.40177
HEad  -39.6793 -10.2681 -3.36696
LeftShoulder1  -1.94126e-019 -3.10601e-018 -2.51263e-017
LeftArm  -7.60063 18.8516 -74.0805
LeftForeArm  28.1282 -29.5312 -4.83928
LeftHand  -0.35342 -0.998856 6.55539
RightShoulder  -4.96962e-017 0 -2.36833e-017
RightArm  0.147416 -2.2603 82.1419
RightForeArm  45.6277 54.353 11.8681
RightHand  -0.134512 0.177598 -2.84184
LeftUpLeg  -15.6643 -3.15901 -2.06175
LeftLeg  16.5005 14.571 3.27396
LeftFoot  2.95235 -0.0229561 0.953417
LeftToes  -9.6274 1.46665e-006 1.03344e-007
275
root  -6.38354 34.4393 -21.6849 137.175 87.373 130.617
RightUpLeg  -12.1624 -9.99026 -9.74678
RightLeg  8.13062 -0.906136 -0.0693065
RightFoot  10.3516 0.0494376 -0.00699326
RightToes  -36.6534 -0.192316 -0.295448
Spine  -0.615298 2.04285 -2.02494
Spine1  -1.31582 4.15336 -3.33689
HEad  -38.6033 -9.689 -4.14703
LeftShoulder1  -1.94126e-019 -3.10601e-018 -2.51263e-017
LeftArm  -7.38019 16.8877 -74.6338
LeftForeArm  28.5562 -30.8617 -5.12979
LeftHand  -0.364435 -0.998789 6.75627
RightShoulder  -4.96962e-017 0 -2.36833e-017
RightArm  0.426425 -2.9917 81.8343
RightForeArm  45.7899 54.3878 11.8686
RightHand  -0.133765 0.0670137 -2.87151
LeftUpLeg  -14.7086 -4.00616 -1.38668
LeftLeg  15.9262 13.5876 2.91645
LeftFoot  3.3206 -0.0262484 0.989747
LeftToes  -11.4404 1.46665e-006 1.03344e-007
